# xmcd
#
# Track frame offsets: 
#        150
#        20010
#        34913
#        48873
#        64043
#        73646
#        84809
#        100004
#        116557
#        134452
#        147287
#        166734
#        180759
#        198699
#        214666
#        231579
#        246012
#        268832
#        285832
#        298807
#        317695
#        340585
#
# Disc length: 4793 seconds
#
# Revision: 1
# Processed by: cddbd v1.5.2PL0 Copyright (c) Steve Scherf et al.
# Submitted via: ExactAudioCopy v1.3
#
DISCID=3d12b716
DTITLE=Freddie King - Akella Presents - Greatest Bluesmen - vol. 13  C
DTITLE=D2
DYEAR=2017
DGENRE=Blues
TTITLE0=Stormy Monday
TTITLE1=I Wonder Why
TTITLE2=I Don't Know
TTITLE3=Yonder Wall
TTITLE4=My Feeling For The Blues
TTITLE5=You Don't Have To Go
TTITLE6=Going Down
TTITLE7=Palace Of The King
TTITLE8=Some Old Blues
TTITLE9=Walking By Myself
TTITLE10=Five Long Years
TTITLE11=Guitar Boogie
TTITLE12=Please Send Me Someone To Love
TTITLE13=Ain't No Big Deal On You
TTITLE14=I'm Ready
TTITLE15=Pulp Wood
TTITLE16=I Had A Dream
TTITLE17=Texas Flyer
TTITLE18=Sugar Sweet
TTITLE19=My Credit Didn't Go Through
TTITLE20=Love Her With A Feeling
TTITLE21=Tore Down
EXTD=
EXTT0=
EXTT1=
EXTT2=
EXTT3=
EXTT4=
EXTT5=
EXTT6=
EXTT7=
EXTT8=
EXTT9=
EXTT10=
EXTT11=
EXTT12=
EXTT13=
EXTT14=
EXTT15=
EXTT16=
EXTT17=
EXTT18=
EXTT19=
EXTT20=
EXTT21=
PLAYORDER=
